<svg xmlns="http://www.w3.org/2000/svg" viewBox="0 0 40 40" fill="none" role="img" aria-label="Warranty Vault">
  <!-- Cyan plate -->
  <rect width="40" height="40" rx="10" fill="#22D3EE"/>
  <!-- Vault door / shield body -->
  <path
    d="M20 8.5c-2.2 0-6.2 1.1-8.4 2.2-.7.3-1.1 1-1.1 1.8v8.6c0 5.6 3.9 9.6 9.5 11.7.3.1.7.1 1 0 5.6-2.1 9.5-6.1 9.5-11.7v-8.6c0-.8-.4-1.5-1.1-1.8-2.2-1.1-6.2-2.2-8.4-2.2Z"
    fill="#0A0A0A"
  />
  <!-- Inner vault panel -->
  <path
    d="M20 11.2c-1.7 0-4.8.9-6.5 1.7-.3.1-.5.4-.5.7v6.7c0 4.2 2.9 7.3 7 8.9.2.1.4.1.6 0 4.1-1.6 7-4.7 7-8.9v-6.7c0-.3-.2-.6-.5-.7-1.7-.8-4.8-1.7-6.5-1.7Z"
    fill="#22D3EE"
    fill-opacity="0.22"
  />
  <!-- Lock body -->
  <rect x="16.2" y="18.4" width="7.6" height="6.2" rx="1.6" fill="#22D3EE"/>
  <!-- Lock shackle -->
  <path
    d="M17.8 18.4v-1.5a2.2 2.2 0 0 1 4.4 0v1.5"
    stroke="#22D3EE"
    stroke-width="1.7"
    stroke-linecap="round"
  />
  <!-- Keyhole -->
  <circle cx="20" cy="21" r="1.05" fill="#0A0A0A"/>
  <rect x="19.35" y="21.5" width="1.3" height="2" rx="0.45" fill="#0A0A0A"/>
</svg>
